<svg xmlns="http://www.w3.org/2000/svg" viewBox="0 0 720 322" font-family="sans-serif" font-size="11">
<rect width="100%" height="100%" fill="#fff"/>
<text x="10" y="15" font-size="13" font-weight="bold" fill="#222">Nodlings progress (12 cycles, day 294.81)</text>
<text x="28" y="36" fill="#444">Benchmark gap (evolved - random)</text>
<line x1="28" y1="144" x2="332" y2="144" stroke="#ccc"/>
<polyline fill="none" stroke="#2a9d8f" stroke-width="2" points="28.0,66.3 55.6,65.8 83.3,57.7 110.9,57.7 138.5,57.7 166.2,61.6 193.8,65.1 221.5,74.6 249.1,74.6 276.7,57.9 304.4,52.9 332.0,52.0"/>
<circle cx="332.0" cy="52.0" r="3" fill="#2a9d8f"/>
<text x="28" y="160" fill="#777">0</text><text x="332" y="160" text-anchor="end" fill="#222">now 2269 (peak 2269)</text>
<text x="388" y="36" fill="#444">Median fitness (living)</text>
<line x1="388" y1="144" x2="692" y2="144" stroke="#ccc"/>
<polyline fill="none" stroke="#e9a23b" stroke-width="2" points="388.0,58.1 415.6,88.8 443.3,88.4 470.9,86.4 498.5,67.3 526.2,65.2 553.8,67.1 581.5,52.0 609.1,52.5 636.7,86.0 664.4,53.0 692.0,53.6"/>
<circle cx="692.0" cy="53.6" r="3" fill="#e9a23b"/>
<text x="388" y="160" fill="#777">0</text><text x="692" y="160" text-anchor="end" fill="#222">now 1133 (peak 1153)</text>
<text x="28" y="186" fill="#444">Largest built cluster (cells)</text>
<line x1="28" y1="294" x2="332" y2="294" stroke="#ccc"/>
<polyline fill="none" stroke="#c8553d" stroke-width="2" points="28.0,225.0 55.6,225.0 83.3,248.0 110.9,225.0 138.5,202.0 166.2,225.0 193.8,248.0 221.5,225.0 249.1,225.0 276.7,202.0 304.4,225.0 332.0,202.0"/>
<circle cx="332.0" cy="202.0" r="3" fill="#c8553d"/>
<text x="28" y="310" fill="#777">0</text><text x="332" y="310" text-anchor="end" fill="#222">now 4 (peak 4)</text>
<text x="388" y="186" fill="#444">Max generation</text>
<line x1="388" y1="294" x2="692" y2="294" stroke="#ccc"/>
<polyline fill="none" stroke="#6a7fdb" stroke-width="2" points="388.0,285.9 415.6,279.3 443.3,269.3 470.9,262.9 498.5,255.9 526.2,247.6 553.8,239.5 581.5,232.3 609.1,223.4 636.7,216.5 664.4,206.7 692.0,202.0"/>
<circle cx="692.0" cy="202.0" r="3" fill="#6a7fdb"/>
<text x="388" y="310" fill="#777">0</text><text x="692" y="310" text-anchor="end" fill="#222">now 331 (peak 331)</text>
</svg>